<svg xmlns="http://www.w3.org/2000/svg" viewBox="0 0 1280 540" width="1280" height="540" role="img" aria-label="Dharmanath Kadam — Java Full Stack Developer">
<title>Dharmanath Kadam — Java Full Stack Developer</title>
<defs>
  <style>
    .sg{font-family:'Segoe UI',Helvetica,Arial,sans-serif;font-weight:700}
    .sgm{font-family:'Segoe UI',Helvetica,Arial,sans-serif;font-weight:500}
    .jb{font-family:ui-monospace,'SF Mono',Menlo,Consolas,monospace}
    .jbb{font-family:ui-monospace,'SF Mono',Menlo,Consolas,monospace;font-weight:700}
    @keyframes fadeUp{from{opacity:0;transform:translateY(14px)}to{opacity:1;transform:translateY(0)}}
    @keyframes fadeIn{from{opacity:0}to{opacity:1}}
    @keyframes role{0%{opacity:0;transform:translateY(16px)}4%{opacity:1;transform:translateY(0)}22%{opacity:1;transform:translateY(0)}25.5%{opacity:0;transform:translateY(-16px)}100%{opacity:0;transform:translateY(-16px)}}
    @keyframes blink{0%,49%{opacity:1}50%,100%{opacity:0}}
    @keyframes drift{from{transform:translate(0,0)}to{transform:translate(40px,-30px)}}
    @keyframes drift2{from{transform:translate(0,0)}to{transform:translate(-50px,26px)}}
    @keyframes draw{from{stroke-dashoffset:60}to{stroke-dashoffset:0}}
    @keyframes float{0%,100%{transform:translateY(0)}50%{transform:translateY(-5px)}}
    @keyframes scan{0%{transform:translateY(-100%)}100%{transform:translateY(420px)}}
    @keyframes eyeBlink{0%,85%,100%{transform:scaleY(1)}90%{transform:scaleY(0.1)}}
    .fu{animation:fadeUp .7s cubic-bezier(.2,.8,.2,1) both}
    .fi{animation:fadeIn .7s ease both}
    .role{animation:role 12s cubic-bezier(.2,.8,.2,1) infinite}
    .cursor{animation:blink 1s steps(1) infinite}
    .blob{animation:drift 14s ease-in-out infinite alternate}
    .blob2{animation:drift2 16s ease-in-out infinite alternate}
    .float{animation:float 3.5s ease-in-out infinite}
    .corner{stroke-dasharray:60;animation:draw .8s ease both}
    .scanline{animation:scan 4s linear infinite}
    .eye{transform-box:fill-box;transform-origin:center;animation:eyeBlink 4.5s infinite}
    @media (prefers-reduced-motion:reduce){*{animation:none!important;opacity:1!important;transform:none!important}}
  </style>
  <linearGradient id="nameG" x1="0" y1="0" x2="1" y2="0">
    <stop offset="0" stop-color="#22d3ee"/><stop offset=".5" stop-color="#a78bfa"/><stop offset="1" stop-color="#f472b6"/>
    <animateTransform attributeName="gradientTransform" type="translate" values="-.35 0;.35 0;-.35 0" dur="7s" repeatCount="indefinite"/>
  </linearGradient>
  <linearGradient id="nameG2" x1="0" y1="0" x2="1" y2="0">
    <stop offset="0" stop-color="#22d3ee"/><stop offset=".55" stop-color="#a78bfa"/><stop offset="1" stop-color="#f472b6"/>
  </linearGradient>
  <linearGradient id="cardG" x1="0" y1="0" x2="0" y2="1">
    <stop offset="0" stop-color="#171a2c"/><stop offset="1" stop-color="#121423"/>
  </linearGradient>
  <linearGradient id="edgeG" x1="0" y1="0" x2="1" y2="0">
    <stop offset="0" stop-color="#22d3ee" stop-opacity=".5"/><stop offset=".5" stop-color="#262a42"/><stop offset="1" stop-color="#f472b6" stop-opacity=".5"/>
  </linearGradient>
  <linearGradient id="skinG" x1="0" y1="0" x2="0" y2="1">
    <stop offset="0" stop-color="#f4c9a0"/><stop offset="1" stop-color="#d9a273"/>
  </linearGradient>
  <linearGradient id="hairG" x1="0" y1="0" x2="0" y2="1">
    <stop offset="0" stop-color="#2b1a0f"/><stop offset="1" stop-color="#1a0f08"/>
  </linearGradient>
  <linearGradient id="shirtG" x1="0" y1="0" x2="0" y2="1">
    <stop offset="0" stop-color="#3b82f6"/><stop offset="1" stop-color="#1e40af"/>
  </linearGradient>
  <linearGradient id="screenG" x1="0" y1="0" x2="0" y2="1">
    <stop offset="0" stop-color="#0b1e1a"/><stop offset="1" stop-color="#06100e"/>
  </linearGradient>
  <linearGradient id="deskG" x1="0" y1="0" x2="0" y2="1">
    <stop offset="0" stop-color="#1e2436"/><stop offset="1" stop-color="#12161f"/>
  </linearGradient>
  <radialGradient id="glowG" cx=".5" cy=".5" r=".5">
    <stop offset="0" stop-color="#22d3ee" stop-opacity=".35"/><stop offset="1" stop-color="#22d3ee" stop-opacity="0"/>
  </radialGradient>
  <radialGradient id="glowP" cx=".5" cy=".5" r=".5">
    <stop offset="0" stop-color="#a78bfa" stop-opacity=".3"/><stop offset="1" stop-color="#a78bfa" stop-opacity="0"/>
  </radialGradient>
  <pattern id="dots" width="26" height="26" patternUnits="userSpaceOnUse">
    <circle cx="13" cy="13" r=".9" fill="#ffffff" fill-opacity=".06"/>
  </pattern>
  <filter id="blur60" x="-50%" y="-50%" width="200%" height="200%"><feGaussianBlur stdDeviation="60"/></filter>
  <filter id="glow" x="-20%" y="-50%" width="140%" height="200%"><feGaussianBlur stdDeviation="3" result="b"/><feMerge><feMergeNode in="b"/><feMergeNode in="SourceGraphic"/></feMerge></filter>
  <clipPath id="card"><rect width="1280" height="540" rx="26"/></clipPath>
  <clipPath id="hiClip"><rect x="60" y="130" width="330" height="46"><animate attributeName="width" values="0;0;330" keyTimes="0;.4167;1" dur="1.2s" begin="0s" fill="freeze" calcMode="spline" keySplines="0 0 1 1;.3 0 .2 1"/></rect></clipPath>
  <clipPath id="nameClip"><rect x="50" y="170" width="600" height="100"><animate attributeName="y" values="262;262;170" keyTimes="0;.5263;1" dur="1.9s" begin="0s" fill="freeze" calcMode="spline" keySplines="0 0 1 1;.2 .8 .2 1"/></rect></clipPath>
  <clipPath id="screenClip"><rect x="1010" y="150" width="170" height="140" rx="5"/></clipPath>
</defs>

<g clip-path="url(#card)">
  <!-- Background -->
  <rect width="1280" height="540" fill="url(#cardG)"/>
  <rect width="1280" height="540" fill="url(#dots)"/>

  <!-- Ambient blobs -->
  <g filter="url(#blur60)" opacity=".55">
    <circle class="blob" cx="170" cy="120" r="150" fill="#22d3ee" fill-opacity=".22"/>
    <circle class="blob2" cx="470" cy="470" r="170" fill="#a78bfa" fill-opacity=".22"/>
    <circle class="blob" cx="1150" cy="80" r="130" fill="#f472b6" fill-opacity=".14"/>
  </g>

  <!-- ═══ RIGHT: PREMIUM WORKSPACE SCENE ═══ -->
  <g class="fu" style="animation-delay:.4s">

    <!-- Wall glows -->
    <ellipse cx="990" cy="330" rx="300" ry="180" fill="url(#glowG)"/>
    <ellipse cx="1040" cy="160" rx="180" ry="130" fill="url(#glowP)"/>

    <!-- Wall clock -->
    <g transform="translate(1210, 130)" opacity=".85">
      <circle r="20" fill="#0f1420" stroke="#262a42" stroke-width="2"/>
      <circle r="17" fill="none" stroke="#22d3ee" stroke-opacity=".25" stroke-width=".8"/>
      <circle r="2" fill="#22d3ee"/>
      <line x1="0" y1="0" x2="0" y2="-12" stroke="#eceef6" stroke-width="1.6" stroke-linecap="round"/>
      <line x1="0" y1="0" x2="8" y2="4" stroke="#eceef6" stroke-width="1.6" stroke-linecap="round"/>
    </g>

    <!-- Chair back (subtle) -->
    <ellipse cx="935" cy="330" rx="85" ry="105" fill="#12161f" opacity=".85"/>

    <!-- Boy body / hoodie -->
    <path d="M885 265 Q872 250 895 242 L985 242 Q1008 250 995 265 L1005 435 L875 435 Z" fill="url(#shirtG)"/>
    <!-- Hoodie hood V -->
    <path d="M905 242 Q940 232 975 242 L968 285 Q940 272 912 285 Z" fill="#1e40af" opacity=".65"/>
    <!-- Hood strings -->
    <circle cx="920" cy="272" r="2.5" fill="#fff" opacity=".9"/>
    <circle cx="960" cy="272" r="2.5" fill="#fff" opacity=".9"/>

    <!-- Neck -->
    <rect x="918" y="225" width="44" height="28" rx="9" fill="#d9a273"/>

    <!-- Head -->
    <g transform="translate(940, 185)">
      <!-- Hair back -->
      <path d="M-44 -8 Q-46 -58 -22 -76 Q0 -86 22 -76 Q46 -58 44 -8 Q40 -19 31 -21 L31 5 Q20 -3 0 -5 Q-20 -3 -31 5 L-31 -21 Q-40 -19 -44 -8 Z" fill="url(#hairG)"/>
      <!-- Face -->
      <ellipse cx="0" cy="0" rx="40" ry="46" fill="url(#skinG)"/>
      <!-- Hair front -->
      <path d="M-46 -22 Q-42 -58 -22 -74 Q0 -84 22 -74 Q42 -58 46 -22 Q31 -36 15 -34 Q0 -32 -15 -34 Q-31 -36 -46 -22 Z" fill="url(#hairG)"/>
      <!-- Fringe -->
      <path d="M-22 -58 Q-8 -68 15 -60 Q6 -46 0 -40 Q-12 -46 -22 -58 Z" fill="url(#hairG)"/>

      <!-- Ears -->
      <ellipse cx="-40" cy="0" rx="6" ry="10" fill="#d9a273"/>
      <ellipse cx="40" cy="0" rx="6" ry="10" fill="#d9a273"/>

      <!-- Eyebrows -->
      <path d="M-25 -15 Q-17 -18 -10 -15" stroke="#1a0f08" stroke-width="2.5" stroke-linecap="round" fill="none"/>
      <path d="M10 -15 Q17 -18 25 -15" stroke="#1a0f08" stroke-width="2.5" stroke-linecap="round" fill="none"/>

      <!-- Eyes with blink -->
      <g class="eye">
        <ellipse cx="-17" cy="-3" rx="5.5" ry="5" fill="#1a0f08"/>
        <ellipse cx="17" cy="-3" rx="5.5" ry="5" fill="#1a0f08"/>
        <circle cx="-15.5" cy="-4.5" r="1.6" fill="#ffffff" opacity=".95"/>
        <circle cx="18.5" cy="-4.5" r="1.6" fill="#ffffff" opacity=".95"/>
      </g>

      <!-- Nose -->
      <path d="M-2 8 Q0 13 2 8" stroke="#b8845a" stroke-width="1.8" stroke-linecap="round" fill="none"/>

      <!-- Friendly smile -->
      <path d="M-12 21 Q0 30 12 21" stroke="#8b5a3a" stroke-width="2.2" stroke-linecap="round" fill="none"/>

      <!-- Blush -->
      <ellipse cx="-26" cy="13" rx="6.5" ry="4" fill="#f472b6" opacity=".28"/>
      <ellipse cx="26" cy="13" rx="6.5" ry="4" fill="#f472b6" opacity=".28"/>
    </g>

    <!-- Hands resting on desk -->
    <ellipse cx="898" cy="428" rx="15" ry="10" fill="#f4c9a0"/>
    <ellipse cx="982" cy="428" rx="15" ry="10" fill="#f4c9a0"/>

    <!-- Desk surface -->
    <rect x="760" y="435" width="480" height="105" fill="url(#deskG)"/>
    <rect x="760" y="435" width="480" height="2.5" fill="#22d3ee" opacity=".55"/>

    <!-- Keyboard on desk -->
    <g transform="translate(870, 448)">
      <rect x="0" y="0" width="140" height="36" rx="5" fill="#0a0e14" stroke="#262a42" stroke-width="1"/>
      <g fill="#2a3142">
        <rect x="8" y="7" width="12" height="6" rx="1"/>
        <rect x="24" y="7" width="12" height="6" rx="1"/>
        <rect x="40" y="7" width="12" height="6" rx="1"/>
        <rect x="56" y="7" width="12" height="6" rx="1"/>
        <rect x="72" y="7" width="12" height="6" rx="1"/>
        <rect x="88" y="7" width="12" height="6" rx="1"/>
        <rect x="104" y="7" width="12" height="6" rx="1"/>
        <rect x="120" y="7" width="12" height="6" rx="1"/>
        <rect x="12" y="16" width="12" height="6" rx="1"/>
        <rect x="28" y="16" width="12" height="6" rx="1"/>
        <rect x="44" y="16" width="12" height="6" rx="1"/>
        <rect x="60" y="16" width="12" height="6" rx="1"/>
        <rect x="76" y="16" width="12" height="6" rx="1"/>
        <rect x="92" y="16" width="12" height="6" rx="1"/>
        <rect x="108" y="16" width="12" height="6" rx="1"/>
        <rect x="28" y="25" width="80" height="6" rx="1"/>
      </g>
    </g>

    <!-- Coffee mug with steam -->
    <g transform="translate(1040, 458)">
      <ellipse cx="0" cy="0" rx="14" ry="4" fill="#2a3142" opacity=".6"/>
      <rect x="-13" y="-18" width="26" height="20" rx="4" fill="#2a3142"/>
      <ellipse cx="0" cy="-18" rx="13" ry="3.5" fill="#3a4152"/>
      <ellipse cx="0" cy="-18" rx="9" ry="2.5" fill="#5a2f1e"/>
      <path d="M13 -12 Q22 -8 13 0" fill="none" stroke="#2a3142" stroke-width="3"/>
      <!-- Steam -->
      <path d="M-4 -25 Q-6 -32 -3 -38" stroke="#8d93ab" stroke-width="1.4" fill="none" opacity=".6">
        <animate attributeName="opacity" values=".2;.7;.2" dur="3s" repeatCount="indefinite"/>
        <animate attributeName="d" values="M-4 -25 Q-6 -32 -3 -38;M-4 -25 Q-2 -32 -4 -40;M-4 -25 Q-6 -32 -3 -38" dur="4s" repeatCount="indefinite"/>
      </path>
      <path d="M4 -25 Q6 -33 3 -40" stroke="#8d93ab" stroke-width="1.4" fill="none" opacity=".6">
        <animate attributeName="opacity" values=".5;.2;.5" dur="3.5s" repeatCount="indefinite"/>
      </path>
    </g>

    <!-- Small plant -->
    <g transform="translate(795, 405)">
      <path d="M-12 30 L12 30 L9 48 L-9 48 Z" fill="#4a2e1e"/>
      <path d="M-12 30 L12 30 L11 33 L-11 33 Z" fill="#5a3a2a"/>
      <!-- Leaves -->
      <path d="M0 30 Q-14 12 -8 -2 Q2 8 0 22" fill="#22c55e" opacity=".85"/>
      <path d="M0 30 Q14 10 6 -4 Q-2 10 0 22" fill="#34d399" opacity=".85"/>
      <path d="M0 30 Q-22 18 -16 4 Q-4 14 -2 24" fill="#22c55e" opacity=".7"/>
      <path d="M0 30 Q20 16 14 2 Q2 12 0 24" fill="#34d399" opacity=".7"/>
    </g>

    <!-- Monitor to the right -->
    <g transform="translate(1095, 220)">
      <!-- Monitor frame -->
      <rect x="-90" y="-80" width="180" height="150" rx="10" fill="#0a0e14" stroke="#262a42" stroke-width="2"/>
      <!-- Screen -->
      <rect x="-80" y="-70" width="160" height="130" rx="5" fill="url(#screenG)"/>

      <!-- Code lines on screen -->
      <g clip-path="url(#screenClip)" font-family="ui-monospace,Menlo,Consolas,monospace" font-size="9">
        <text x="1024" y="165" fill="#22d3ee">public class Dev {</text>
        <text x="1034" y="183" fill="#fbbf24">void build() {</text>
        <text x="1044" y="201" fill="#a78bfa">Spring.run();</text>
        <text x="1044" y="219" fill="#34d399">React.render();</text>
        <text x="1034" y="237" fill="#fbbf24">}</text>
        <text x="1024" y="255" fill="#22d3ee">}</text>
        <rect x="1044" y="262" width="6" height="10" fill="#22d3ee" class="cursor"/>
      </g>

      <!-- Scanline -->
      <g clip-path="url(#screenClip)">
        <rect class="scanline" x="1010" y="150" width="170" height="25" fill="#22d3ee" opacity=".12"/>
      </g>
    </g>

    <!-- Monitor stand -->
    <rect x="1082" y="290" width="26" height="140" fill="#12161f"/>
    <rect x="1050" y="428" width="90" height="8" rx="3" fill="#12161f"/>

    <!-- ═══ FLOATING TECH CHIPS ═══ -->
    <g class="float" style="animation-delay:0s">
      <rect x="780" y="86" width="90" height="32" rx="10" fill="#f89820" fill-opacity=".14" stroke="#f89820" stroke-opacity=".6"/>
      <circle cx="798" cy="102" r="4.5" fill="#f89820"/>
      <text class="jb" x="812" y="108" font-size="13" fill="#eceef6">Java</text>
    </g>
    <g class="float" style="animation-delay:.5s">
      <rect x="1100" y="80" width="130" height="32" rx="10" fill="#6DB33F" fill-opacity=".14" stroke="#6DB33F" stroke-opacity=".6"/>
      <circle cx="1118" cy="96" r="4.5" fill="#6DB33F"/>
      <text class="jb" x="1132" y="102" font-size="13" fill="#eceef6">Spring Boot</text>
    </g>
    <g class="float" style="animation-delay:1s">
      <rect x="1120" y="350" width="110" height="32" rx="10" fill="#61DAFB" fill-opacity=".14" stroke="#61DAFB" stroke-opacity=".6"/>
      <circle cx="1138" cy="366" r="4.5" fill="#61DAFB"/>
      <text class="jb" x="1152" y="372" font-size="13" fill="#eceef6">React</text>
    </g>
    <g class="float" style="animation-delay:1.5s">
      <rect x="770" y="340" width="110" height="32" rx="10" fill="#4479A1" fill-opacity=".14" stroke="#4479A1" stroke-opacity=".6"/>
      <circle cx="788" cy="356" r="4.5" fill="#4479A1"/>
      <text class="jb" x="802" y="362" font-size="13" fill="#eceef6">MySQL</text>
    </g>
  </g>

  <!-- Viewfinder HUD (corners) -->
  <path class="corner" d="M760 74V40H794" fill="none" stroke="#eceef6" stroke-opacity=".7" stroke-width="2.2" stroke-linecap="round" style="animation-delay:0.3s"/>
  <path class="corner" d="M1236 74V40H1202" fill="none" stroke="#eceef6" stroke-opacity=".7" stroke-width="2.2" stroke-linecap="round" style="animation-delay:0.38s"/>
  <path class="corner" d="M760 466V500H794" fill="none" stroke="#eceef6" stroke-opacity=".7" stroke-width="2.2" stroke-linecap="round" style="animation-delay:0.46s"/>
  <path class="corner" d="M1236 466V500H1202" fill="none" stroke="#eceef6" stroke-opacity=".7" stroke-width="2.2" stroke-linecap="round" style="animation-delay:0.54s"/>

  <g class="fi" style="animation-delay:.6s">
    <circle cx="782" cy="483" r="5" fill="#34d399">
      <animate attributeName="opacity" values="1;.15;1" dur="1.2s" repeatCount="indefinite"/>
    </circle>
    <text class="jbb" x="794" y="488" font-size="13" fill="#eceef6" letter-spacing="2">LIVE</text>
    <text class="jb" x="1222" y="488" font-size="12" fill="#8d93ab" text-anchor="end" letter-spacing="1.5">DHARMANATH.DEV · 24FPS</text>
  </g>

  <!-- ═══ LEFT: INFO ═══ -->
  <g class="fu" style="animation-delay:.2s">
    <rect x="64" y="64" width="240" height="32" rx="16" fill="#34d399" fill-opacity=".1" stroke="#34d399" stroke-opacity=".45"/>
    <circle cx="84" cy="80" r="4.5" fill="#34d399"/>
    <circle cx="84" cy="80" r="4" fill="none" stroke="#34d399" stroke-width="1.5">
      <animate attributeName="r" values="4;11" dur="1.6s" repeatCount="indefinite"/>
      <animate attributeName="opacity" values=".9;0" dur="1.6s" repeatCount="indefinite"/>
    </circle>
    <text class="jbb" x="98" y="85" font-size="12" fill="#34d399" letter-spacing="1.6">OPEN TO WORK</text>
  </g>

  <text clip-path="url(#hiClip)" class="sgm" x="64" y="164" font-size="30" fill="#eceef6">Hi there, I'm</text>

  <g clip-path="url(#nameClip)">
    <text class="sg" x="60" y="250" font-size="68" letter-spacing="-1.5" fill="url(#nameG)" filter="url(#glow)">DHARMANATH</text>
  </g>
  <text class="sg fu" x="60" y="316" font-size="68" letter-spacing="-1.5" fill="url(#nameG)" filter="url(#glow)" style="animation-delay:1.8s">KADAM</text>

  <rect x="64" y="338" width="120" height="3" rx="1.5" fill="url(#nameG2)">
    <animate attributeName="width" values="0;0;120" keyTimes="0;.68;1" dur="2.5s" begin="0s" fill="freeze"/>
  </rect>

  <!-- Cycling roles -->
  <text class="jbb fi" x="64" y="384" font-size="20" fill="#22d3ee" style="animation-delay:1.8s">&gt;</text>
  <text class="role jb" x="90" y="384" font-size="20" fill="#eceef6" opacity="1" style="animation-delay:1.9s">Java Full Stack Developer</text>
  <text class="role jb" x="90" y="384" font-size="20" fill="#eceef6" opacity="0" style="animation-delay:4.9s">Spring Boot &amp; React Builder</text>
  <text class="role jb" x="90" y="384" font-size="20" fill="#eceef6" opacity="0" style="animation-delay:7.9s">AI &amp; Data Science Enthusiast</text>
  <text class="role jb" x="90" y="384" font-size="20" fill="#eceef6" opacity="0" style="animation-delay:10.9s">Problem Solver · 150+ DSA</text>

  <!-- Bio -->
  <text class="sgm fu" x="64" y="428" font-size="16" fill="#8d93ab" style="animation-delay:2.5s">Building clean, scalable full-stack apps with Java, Spring Boot &amp; React —</text>
  <text class="sgm fu" x="64" y="450" font-size="16" fill="#8d93ab" style="animation-delay:2.62s">and AI-powered tools that solve real-world problems.</text>

  <!-- Info pills -->
  <g class="fu" style="animation-delay:3.0s">
    <g transform="translate(72,488)">
      <path d="M0-8a6 6 0 0 1 6 6c0 4.5-6 10-6 10s-6-5.5-6-10a6 6 0 0 1 6-6z" fill="none" stroke="#22d3ee" stroke-width="1.8"/>
      <circle cy="-2" r="2" fill="#22d3ee"/>
    </g>
    <text class="jb" x="88" y="493" font-size="14" fill="#8d93ab">Pune, India</text>
  </g>
  <g class="fu" style="animation-delay:3.15s">
    <g transform="translate(220,488)">
      <rect x="-7" y="-5" width="14" height="11" rx="2" fill="none" stroke="#a78bfa" stroke-width="1.8"/>
      <path d="M-3-5v-2.5h6V-5" fill="none" stroke="#a78bfa" stroke-width="1.8"/>
    </g>
    <text class="jb" x="236" y="493" font-size="14" fill="#8d93ab">B.Tech CSE · Data Science</text>
  </g>
  <g class="fu" style="animation-delay:3.3s">
    <g transform="translate(430,488)">
      <path d="M0-8l2.4 5 5.4.6-4 3.7 1.1 5.4L0 4 -4.9 6.7-3.8 1.3-7.8-2.4l5.4-.6z" fill="none" stroke="#f472b6" stroke-width="1.7" stroke-linejoin="round"/>
    </g>
    <text class="jb" x="446" y="493" font-size="14" fill="#8d93ab">1st Rank · 84.20%</text>
  </g>
</g>

<rect x=".75" y=".75" width="1278.5" height="538.5" rx="25.5" fill="none" stroke="url(#edgeG)" stroke-width="1.5"/>
</svg>
